<?xml version="1.0"?>
<svg xmlns="http://www.w3.org/2000/svg" xmlns:xlink="http://www.w3.org/1999/xlink" xmlns:svgjs="http://svgjs.com/svgjs" version="1.1" width="512" height="512" x="0" y="0" viewBox="0 0 512 512.001" style="enable-background:new 0 0 512 512" xml:space="preserve" class=""><g transform="matrix(1,0,0,1,130,0)"><path xmlns="http://www.w3.org/2000/svg" d="m221.859375 484.777344-85.007813-60.492188v-101.621094c28.578126-3.597656 55.277344-17.355468 74.898438-38.984374 23.316406-25.699219 34.75-60.324219 31.367188-94.988282-.011719-.125-.023438-.253906-.039063-.378906l-21.554687-175.144531c-.925782-7.519531-7.3125-13.167969-14.886719-13.167969h-169.570313c-7.574218 0-13.960937 5.648438-14.886718 13.167969l-21.554688 175.144531c-.015625.125-.027344.25-.042969.378906-3.378906 34.664063 8.054688 69.289063 31.371094 94.988282 19.621094 21.628906 46.320313 35.390624 74.898437 38.984374v101.625l-85.007812 60.488282c-5.316406 3.785156-7.578125 10.570312-5.59375 16.789062 1.984375 6.214844 7.765625 10.433594 14.289062 10.433594h182.621094c6.527344 0 12.304688-4.21875 14.289063-10.433594 1.988281-6.21875-.273438-13.003906-5.589844-16.789062zm-100.007813-34.34375 44.359376 31.566406h-88.71875zm71.515626-420.433594 17.082031 138.78125h-177.191407l17.078126-138.78125zm-163.339844 168.707031c.46875.046875.949218.074219 1.429687.074219h179.15625c1.046875 0 2.070313-.109375 3.058594-.3125.566406 23.914062-8.039063 47.304688-24.140625 65.054688-17.605469 19.402343-41.640625 30.089843-67.679688 30.089843-26.042968 0-50.078124-10.6875-67.679687-30.089843-16.050781-17.691407-24.652344-40.984376-24.144531-64.816407zm0 0" fill="#000000" data-original="#000000" style="" class=""/></g></svg>
